<svg width="30" height="30" viewBox="0 0 30 30" fill="none" xmlns="http://www.w3.org/2000/svg">
<g clip-path="url(#clip0_102_4)">
<path d="M3.49942 19.5703L13.2686 26.3002V20.2902L7.8575 16.5569L3.49942 19.5703ZM2.49496 17.1596L5.62176 15L2.49496 12.8404V17.1596ZM15.7636 26.3002L25.5328 19.5703L21.1748 16.5569L15.7636 20.2902V26.3002ZM14.5161 18.0469L18.9228 15L14.5161 11.9531L10.1094 15L14.5161 18.0469ZM7.8575 13.4431L13.2686 9.70982V3.69978L3.49942 10.4297L7.8575 13.4431ZM23.4105 15L26.5373 17.1596V12.8404L23.4105 15ZM21.1748 13.4431L25.5328 10.4297L15.7636 3.69978V9.70982L21.1748 13.4431ZM29.0323 10.4297V19.5703C29.0323 20.0279 28.8486 20.385 28.4814 20.6417L15.2128 29.7824C14.986 29.9275 14.7537 30 14.5161 30C14.2785 30 14.0463 29.9275 13.8195 29.7824L0.550835 20.6417C0.183612 20.385 0 20.0279 0 19.5703V10.4297C0 9.9721 0.183612 9.61495 0.550835 9.35826L13.8195 0.217634C14.0463 0.0725446 14.2785 0 14.5161 0C14.7537 0 14.986 0.0725446 15.2128 0.217634L28.4814 9.35826C28.8486 9.61495 29.0323 9.9721 29.0323 10.4297Z" fill="#E4E4E4"/>
</g>
<defs>
<clipPath id="clip0_102_4">
<rect width="30" height="30" fill="white"/>
</clipPath>
</defs>
</svg>
