<svg width="190" height="242" viewBox="0 0 190 242" fill="none" xmlns="http://www.w3.org/2000/svg">
<path d="M35.6873 134.723L67.8227 116.053L77.5305 121.657L45.3951 140.326L35.6873 134.723Z" fill="black"/>
<path d="M35.8553 75.2577L67.9907 56.5758L67.8227 116.053L35.6873 134.723L35.8553 75.2577Z" fill="#555456"/>
<path d="M81.1784 92.1158L113.314 73.4339L113.098 151.497L80.9504 170.167L81.1784 92.1158Z" fill="#555456"/>
<path d="M58.5949 53.0242L81.1664 92.1158L80.9504 170.167L58.2229 183.102L0 149.481L0.371994 19.3919L58.5949 53.0122V53.0242ZM45.3951 140.326L45.5631 80.8611L35.8553 75.2577L35.6873 134.723L45.3951 140.326Z" fill="#E4E4E4"/>
<path d="M58.5948 53.0242L90.7422 34.3423L113.314 73.4339L81.1784 92.1158L58.5948 53.0242Z" fill="#555456"/>
<path d="M0.371948 19.4039L32.5073 0.734009L90.7422 34.3423L58.5948 53.0242L0.371948 19.4039Z" fill="black"/>
<path d="M130.353 175.147L162.501 156.477L162.453 173.203L130.305 191.885L130.353 175.147Z" fill="#555456"/>
<path d="M130.305 191.885L162.453 173.203L189.944 189.077L157.809 207.759L130.305 191.885Z" fill="black"/>
<path d="M157.809 207.759L189.944 189.077L189.848 222.529L157.713 241.199L157.809 207.759Z" fill="#555456"/>
<path d="M130.485 128.7L162.633 110.018L162.585 124.884L130.449 143.554L130.485 128.7Z" fill="#555456"/>
<path d="M130.449 143.554L162.585 124.884L185.228 137.951L153.093 156.633L130.449 143.554Z" fill="black"/>
<path d="M153.093 156.633L185.228 137.951L185.132 169.543L152.997 188.225L153.093 156.633Z" fill="#555456"/>
<path d="M95.0021 74.6938L127.138 56.0238L188.6 91.5039L156.465 110.174L95.0021 74.6938Z" fill="black"/>
<path d="M156.465 110.174L188.6 91.5039L188.504 124.956L156.369 143.638L156.465 110.174Z" fill="#555456"/>
<path d="M156.465 110.174L156.369 143.638L130.485 128.7L130.449 143.554L153.093 156.633L152.997 188.225L130.353 175.147L130.305 191.885L157.809 207.759L157.713 241.199L94.6302 204.783L95.0022 74.6938L156.465 110.174Z" fill="#E4E4E4"/>
</svg>
