<svg width="31" height="30" viewBox="0 0 31 30" fill="none" xmlns="http://www.w3.org/2000/svg">
<path d="M15.1613 0C11.5995 0.000151434 8.15399 1.29973 5.44127 3.66621C2.72854 6.03269 0.925603 9.31163 0.355055 12.9163C-0.215492 16.5211 0.483581 20.2163 2.32719 23.3409C4.1708 26.4655 7.03864 28.8156 10.4176 29.9706C11.1676 30.1052 11.4488 29.6438 11.4488 29.24C11.4488 28.8748 11.43 27.6637 11.43 26.3756C7.6613 27.0869 6.68631 25.4337 6.38631 24.5686C6.05343 23.7272 5.52573 22.9816 4.84882 22.3962C4.32383 22.1079 3.57383 21.3966 4.83006 21.3774C5.30974 21.4307 5.7698 21.6019 6.17126 21.8763C6.57272 22.1507 6.90376 22.5203 7.13631 22.9537C7.34146 23.3316 7.61732 23.6642 7.94809 23.9326C8.27885 24.201 8.65801 24.3998 9.06384 24.5177C9.46968 24.6355 9.8942 24.6701 10.3131 24.6195C10.732 24.5688 11.137 24.4339 11.505 24.2225C11.5699 23.4407 11.9098 22.7096 12.4613 22.1656C9.12379 21.7811 5.63632 20.4546 5.63632 14.572C5.61524 13.0435 6.16534 11.5647 7.17381 10.4388C6.71523 9.11036 6.76889 7.6525 7.32381 6.36327C7.32381 6.36327 8.58 5.95954 11.4488 7.93965C13.9032 7.24754 16.4943 7.24754 18.9487 7.93965C21.8174 5.94033 23.0737 6.36327 23.0737 6.36327C23.6287 7.65248 23.6823 9.11037 23.2237 10.4388C24.2352 11.5628 24.7858 13.0429 24.7612 14.572C24.7612 20.4738 21.2549 21.7811 17.9175 22.1656C18.2755 22.5376 18.5512 22.9842 18.7259 23.4751C18.9006 23.9661 18.9702 24.4898 18.93 25.0108C18.93 27.0678 18.9112 28.721 18.9112 29.2401C18.9112 29.6438 19.1925 30.1244 19.9425 29.9706C23.3154 28.8062 26.175 26.4506 28.0108 23.3244C29.8465 20.1983 30.539 16.5049 29.9645 12.9037C29.39 9.30244 27.5859 6.02775 24.8744 3.66415C22.1628 1.30056 18.7203 0.00189921 15.1613 0Z" fill="#E4E4E4"/>
</svg>
