<svg width="30" height="30" viewBox="0 0 30 30" fill="none" xmlns="http://www.w3.org/2000/svg">
<path d="M26.8855 0.000209743H2.14675C1.86866 -0.00375713 1.59254 0.0485803 1.33415 0.154233C1.07576 0.259886 0.840159 0.416785 0.640809 0.615969C0.441459 0.815153 0.282263 1.05272 0.172312 1.31511C0.0623615 1.57749 0.00380923 1.85955 0 2.14518V27.8548C0.00380923 28.1404 0.0623615 28.4225 0.172312 28.6849C0.282263 28.9473 0.441459 29.1848 0.640809 29.384C0.840159 29.5832 1.07576 29.7401 1.33415 29.8458C1.59254 29.9514 1.86866 30.0038 2.14675 29.9998H26.8855C27.1636 30.0038 27.4397 29.9514 27.6981 29.8458C27.9565 29.7401 28.1921 29.5832 28.3914 29.384C28.5908 29.1848 28.75 28.9473 28.8599 28.6849C28.9699 28.4225 29.0284 28.1404 29.0323 27.8548V2.14518C29.0284 1.85955 28.9699 1.57749 28.8599 1.31511C28.75 1.05272 28.5908 0.815153 28.3914 0.615969C28.1921 0.416785 27.9565 0.259886 27.6981 0.154233C27.4397 0.0485803 27.1636 -0.00375713 26.8855 0.000209743ZM8.80606 25.1099H4.42494V11.61H8.80606V25.1099ZM6.6155 9.72007C6.01129 9.72007 5.43182 9.47354 5.00458 9.03471C4.57734 8.59588 4.33731 8.0007 4.33731 7.38011C4.33731 6.75951 4.57734 6.16433 5.00458 5.7255C5.43182 5.28667 6.01129 5.04014 6.6155 5.04014C6.93634 5.00277 7.26124 5.03542 7.56894 5.13596C7.87664 5.23651 8.16019 5.40267 8.40104 5.62357C8.64188 5.84448 8.83458 6.11514 8.96651 6.41784C9.09845 6.72054 9.16665 7.04846 9.16665 7.38011C9.16665 7.71176 9.09845 8.03967 8.96651 8.34237C8.83458 8.64507 8.64188 8.91574 8.40104 9.13664C8.16019 9.35754 7.87664 9.52371 7.56894 9.62425C7.26124 9.72479 6.93634 9.75745 6.6155 9.72007ZM24.6073 25.1099H20.2262V17.865C20.2262 16.05 19.5982 14.865 18.0064 14.865C17.5138 14.8687 17.0341 15.0274 16.632 15.3198C16.2299 15.6121 15.9246 16.024 15.7574 16.5C15.6432 16.8525 15.5936 17.2238 15.6114 17.595V25.0949H11.2303C11.2303 25.0949 11.2303 12.825 11.2303 11.595H15.6114V13.5C16.0094 12.7907 16.5883 12.2063 17.2856 11.8098C17.983 11.4134 18.7725 11.2198 19.569 11.2501C22.4898 11.2501 24.6073 13.185 24.6073 17.34V25.1099Z" fill="#E4E4E4"/>
</svg>
