<svg width="304" height="299" viewBox="0 0 304 299" fill="none" xmlns="http://www.w3.org/2000/svg">
<path d="M36.3452 135.849L68.4806 117.179L76.5685 121.846L44.4331 140.528L36.3452 135.849Z" fill="black"/>
<path d="M36.6093 39.2236L68.7566 20.5417L68.4806 117.179L36.3452 135.849L36.6093 39.2236Z" fill="#454047"/>
<path d="M44.4811 121.942L76.6164 103.26L107.348 121.007L75.2125 139.676L44.4811 121.942Z" fill="black"/>
<path d="M75.2125 139.676L107.348 121.007L107.204 173.045L75.0685 191.715L75.2125 139.676Z" fill="#555456"/>
<path d="M1.02995 18.6819L33.1654 0L68.7566 20.5417L36.6093 39.2236L1.02995 18.6819Z" fill="black"/>
<path d="M36.6093 39.2236L36.3452 135.849L44.4331 140.528L44.4811 121.942L75.2125 139.676L75.0685 191.715L0.657944 148.771L1.02993 18.6819L36.6093 39.2236Z" fill="#E4E4E4"/>
<path d="M130.147 190.011L162.295 171.341L170.383 176.008L138.235 194.678L130.147 190.011Z" fill="black"/>
<path d="M130.423 93.3736L162.571 74.7037L162.295 171.341L130.147 190.011L130.423 93.3736Z" fill="#454047"/>
<path d="M138.295 176.092L170.431 157.422L201.162 175.156L169.027 193.838L138.295 176.092Z" fill="black"/>
<path d="M169.027 193.838L201.162 175.156L201.018 227.195L168.871 245.877L169.027 193.838Z" fill="#555456"/>
<path d="M130.423 93.3736L130.147 190.011L138.235 194.678L138.295 176.092L169.027 193.838L168.871 245.877L94.4721 202.921L94.8441 72.8319L130.423 93.3736Z" fill="#E4E4E4"/>
<path d="M94.8441 72.8319L126.98 54.162L162.571 74.7037L130.423 93.3736L94.8441 72.8319Z" fill="black"/>
<path d="M225.582 248.072L257.717 229.402L267.413 235.006L235.277 253.676L225.582 248.072Z" fill="black"/>
<path d="M225.738 192.327L257.873 173.657L257.717 229.402L225.582 248.072L225.738 192.327Z" fill="#555456"/>
<path d="M189.366 160.17L221.514 141.488L244.229 128.542L212.082 147.224L189.366 160.17Z" fill="black"/>
<path d="M271.865 207.793L304 189.111L303.784 267.162L271.637 285.844L271.865 207.793Z" fill="#555456"/>
<path d="M249.293 168.701L271.865 207.793L271.649 285.844L248.933 298.791L211.734 277.313L189.162 238.221L189.378 160.17L212.094 147.224L249.293 168.701ZM235.277 253.676L235.433 197.93L225.738 192.327L225.582 248.072L235.277 253.676Z" fill="#E4E4E4"/>
<path d="M249.293 168.701L281.428 150.019L304 189.111L271.865 207.793L249.293 168.701Z" fill="#454047"/>
<path d="M212.082 147.224L244.229 128.542L281.428 150.019L249.293 168.701L212.082 147.224Z" fill="black"/>
</svg>
