<svg width="520" height="384" viewBox="0 0 520 384" fill="none" xmlns="http://www.w3.org/2000/svg">
<path d="M473.251 125.832L441.116 107.162L450.824 101.558L482.959 120.228L473.251 125.832Z" fill="#E4E4E4"/>
<path d="M482.959 120.228L450.824 101.558L450.668 45.8007L482.803 64.4826L482.959 120.228Z" fill="black"/>
<path d="M496.447 19.3796L464.299 0.697708L487.015 13.6443L519.162 32.3262L496.447 19.3796Z" fill="black"/>
<path d="M436.892 158L404.744 139.318L404.528 61.267L436.664 79.9369L436.892 158Z" fill="#E4E4E4"/>
<path d="M496.447 19.3796L519.162 32.3262L519.378 110.378L496.807 149.469L459.607 170.947L436.88 158.012L436.664 79.9609L459.235 40.8692L496.435 19.3916L496.447 19.3796ZM482.959 120.228L482.803 64.4826L473.095 70.086L473.251 125.832L482.959 120.228Z" fill="#555456"/>
<path d="M436.664 79.9369L404.528 61.267L427.1 22.1753L459.247 40.8452L436.664 79.9369Z" fill="#454047"/>
<path d="M459.247 40.8452L427.1 22.1753L464.299 0.697708L496.447 19.3796L459.247 40.8452Z" fill="black"/>
<path d="M387.921 200.583L355.773 181.914L353.589 151.533L385.725 170.215L387.921 200.583Z" fill="black"/>
<path d="M379.329 142.258L347.194 123.588L356.889 117.985L389.025 136.655L379.329 142.258Z" fill="#E4E4E4"/>
<path d="M389.025 136.655L356.889 117.985L356.793 82.6606L388.929 101.342L389.025 136.655Z" fill="black"/>
<path d="M401.78 62.2749L369.645 43.6049L392.361 56.5515L424.496 75.2334L401.78 62.2749Z" fill="black"/>
<path d="M413.348 141.61L429.644 176.502L387.921 200.595L385.725 170.215L379.413 173.862L379.497 205.455L343.918 225.997L343.546 95.9071L401.768 62.2868L424.484 75.2334L424.616 122.064L413.336 141.622L413.348 141.61ZM389.025 136.655L388.929 101.342L379.233 106.946L379.329 142.258L389.025 136.655Z" fill="#555456"/>
<path d="M343.918 225.985L311.782 207.315L311.41 77.2132L343.558 95.8951L343.918 225.985Z" fill="#E4E4E4"/>
<path d="M343.558 95.8951L311.41 77.2132L369.645 43.6049L401.78 62.2749L343.558 95.8951Z" fill="black"/>
<path d="M287.591 252.562L255.455 233.892L253.271 203.511L285.407 222.181L287.591 252.562Z" fill="black"/>
<path d="M279.011 194.236L246.863 175.554L256.571 169.951L288.719 188.633L279.011 194.236Z" fill="#E4E4E4"/>
<path d="M288.719 188.633L256.571 169.951L256.475 134.651L288.611 153.321L288.719 188.633Z" fill="black"/>
<path d="M301.462 114.265L269.315 95.5831L292.043 108.53L324.178 127.2L301.462 114.265Z" fill="black"/>
<path d="M313.018 193.588L329.314 228.48L287.579 252.574L285.383 222.193L279.071 225.841L279.155 257.433L243.576 277.975L243.204 147.885L301.426 114.265L324.154 127.2L324.286 174.03L312.994 193.576L313.018 193.588ZM288.719 188.633L288.623 153.321L278.915 158.924L279.011 194.236L288.719 188.633Z" fill="#555456"/>
<path d="M243.599 277.963L211.464 259.293L211.092 129.203L243.228 147.873L243.599 277.963Z" fill="#E4E4E4"/>
<path d="M243.228 147.873L211.092 129.203L269.315 95.5832L301.462 114.265L243.228 147.873Z" fill="black"/>
<path d="M189.133 301.864L156.997 283.194L154.993 263.864L187.141 282.534L189.133 301.864Z" fill="black"/>
<path d="M172.825 261.021L140.678 242.351L152.005 235.812L184.141 254.493L172.825 261.021Z" fill="#E4E4E4"/>
<path d="M184.141 254.493L152.005 235.812L147.337 190.109L179.473 208.791L184.141 254.493Z" fill="black"/>
<path d="M207.048 161.228L224.724 281.322L189.145 301.864L187.153 282.534L170.005 292.433L168.121 314.007L132.542 334.549L149.473 194.476L207.06 161.24L207.048 161.228ZM172.825 261.021L184.141 254.481L179.473 208.779L177.205 210.086L172.813 261.021" fill="#555456"/>
<path d="M132.53 334.549L100.382 315.867L117.326 175.794L149.461 194.464L132.53 334.549Z" fill="#E4E4E4"/>
<path d="M149.461 194.464L117.326 175.794L174.901 142.558L207.048 161.228L149.461 194.464Z" fill="black"/>
<path d="M73.5628 325.934L41.4274 307.264L41.3914 294.257L73.5268 312.927L73.5628 325.934Z" fill="#E4E4E4"/>
<path d="M34.8516 383.659L2.71621 364.977L2.60822 329.677L34.7436 348.347L34.8516 383.659Z" fill="#E4E4E4"/>
<path d="M34.7436 348.347L2.60822 329.677L41.4274 307.264L73.5628 325.934L34.7436 348.347Z" fill="black"/>
<path d="M68.5709 280.423L36.4355 261.753L76.8988 244.535L109.034 263.204L68.5709 280.423Z" fill="#E4E4E4"/>
<path d="M33.0756 330.133L0.940244 311.463L0.796234 261.849L32.9316 280.519L33.0756 330.133Z" fill="#E4E4E4"/>
<path d="M55.5032 241.427L23.3678 222.757L75.1228 192.88L107.258 211.55L55.5032 241.427Z" fill="black"/>
<path d="M32.9316 280.519L0.796234 261.849L23.3678 222.757L55.5032 241.427L32.9316 280.519Z" fill="#454047"/>
<path d="M107.258 211.55L107.366 246.862L68.5469 269.264L68.5709 280.423L109.034 263.204L109.178 314.691L86.6066 353.782L34.8516 383.659L34.7436 348.347L73.5628 325.934L73.5268 312.927L33.0756 330.133L32.9316 280.519L55.5032 241.427L107.258 211.55Z" fill="#555456"/>
</svg>
