<svg width="608" height="425" viewBox="0 0 608 425" fill="none" xmlns="http://www.w3.org/2000/svg">
<path d="M418.534 48.7381L418.354 117.214L402.322 125.998L402.502 57.5211L418.534 48.7381Z" fill="black"/>
<path d="M450.933 71.5596L450.741 140.036L418.354 117.214L418.534 48.7381L450.933 71.5596Z" fill="#555456"/>
<path d="M497.816 99.9604L497.636 168.437L477.909 179.248L478.089 110.771L497.816 99.9604Z" fill="black"/>
<path d="M512.996 201.745L512.804 270.221L296.844 118.066L297.024 49.59L512.996 201.745Z" fill="#555456"/>
<path d="M337.775 96.8168L337.595 165.293L298.128 186.903L298.308 118.426L337.775 96.8168Z" fill="black"/>
<path d="M533.288 124.966L533.108 193.442L497.636 168.437L497.816 99.9604L533.288 124.966Z" fill="#555456"/>
<path d="M409.966 153.858L409.786 222.335L375.251 241.233L375.431 172.756L409.966 153.858Z" fill="black"/>
<path d="M599.898 103.944L607.938 149.755L512.996 201.745L297.036 49.602L387.059 0.323509L459.225 11.0263L502.412 41.4549L506.252 64.8523L548.683 67.888L599.898 103.968V103.944ZM513.56 135.764L533.288 124.966L497.816 99.9724L478.089 110.771L513.572 135.764M434.89 80.3426L450.921 71.5716L418.522 48.7501L402.49 57.5331L434.878 80.3546" fill="#E4E4E4"/>
<path d="M607.938 149.755L607.758 218.231L512.804 270.221L512.996 201.745L607.938 149.755Z" fill="black"/>
<path d="M260.149 247.472L259.969 315.948L120.52 214.608L120.7 146.131L260.149 247.472Z" fill="#555456"/>
<path d="M500.66 208.5L500.48 276.977L404.302 329.627L404.482 261.15L500.66 208.5Z" fill="black"/>
<path d="M404.482 261.15L404.302 329.627L188.342 177.484L188.522 109.007L404.482 261.15Z" fill="#555456"/>
<path d="M282.229 57.7011L337.775 96.8168L298.308 118.426L322.992 135.812L357.515 116.903L409.966 153.858L375.431 172.756L403.21 192.326L445.125 169.373L500.66 208.5L404.482 261.15L188.522 109.007L282.229 57.7011Z" fill="#E4E4E4"/>
<path d="M205.886 277.181L205.706 345.657L108.34 263.766L108.52 195.29L205.886 277.181Z" fill="#555456"/>
<path d="M380.555 274.253L380.375 342.729L312.3 379.985L312.48 311.509L380.555 274.253Z" fill="black"/>
<path d="M312.48 311.509L312.3 379.985L226.358 327.779L226.55 259.303L312.48 311.509Z" fill="#555456"/>
<path d="M231.097 356.072L230.918 424.548L0.906006 280.096L1.086 211.62L231.097 356.072Z" fill="#555456"/>
<path d="M299.172 318.804L298.992 387.28L230.918 424.548L231.098 356.072L299.172 318.804Z" fill="black"/>
<path d="M178.659 114.407L380.555 274.253L312.48 311.509L226.55 259.303L299.172 318.804L231.098 356.072L1.086 211.62L59.0449 179.896L203.426 278.524L205.886 277.181L108.52 195.29L139.107 178.552L257.689 248.816L260.149 247.472L120.7 146.131L178.659 114.407Z" fill="#E4E4E4"/>
</svg>
